<?xml version="1.0" encoding="UTF-8"?>
<!DOCTYPE svg PUBLIC "-//W3C//DTD SVG 1.1//EN" "http://www.w3.org/Graphics/SVG/1.1/DTD/svg11.dtd">
<!--Generated by Origin-->
<svg xmlns="http://www.w3.org/2000/svg" xmlns:xlink="http://www.w3.org/1999/xlink" xmlns:olab="http://www.originlab.com/namespaces/olab" viewBox="0,0 1545,1183" width="272.288545mm" height="208.407417mm">
	<svg xmlns="http://www.w3.org/2000/svg" xmlns:xlink="http://www.w3.org/1999/xlink" xmlns:olab="http://www.originlab.com/namespaces/olab" viewBox="0,0 6432.99,4923.96" width="1542.99" height="1180.99" x="0.00012207" y="0.00012207" preserveAspectRatio="none">
		<defs>
			<mask id="Cp_1">
				<path d="M 1029,345 L 5414,345 5414,3882 1029,3882Z" fill="white"/>
			</mask>
		</defs>
		<g mask="url(#Cp_1)">
			<rect x="0" y="0" width="6433" height="4924" visibility="hidden" fill="none" opacity="0"/>
			<polyline points="1029,1506 1244,2462 1459,3504 1674,829 1889,2498 2104,1555 2318,2257 2533,1588 2748,2335 2963,3128 3178,1764 3393,2268 3608,2375 3823,1079 4038,1598 4253,1264 4467,3280 4682,589 4897,3637 5112,2279 5327,2906" fill="none" style="stroke-width: 30;stroke-linecap: round;stroke-dashoffset: 0;stroke-miterlimit:10;stroke-linejoin: round;stroke: #D4A574"/>
		</g>
		<polyline points="1029,3881 5413,3881" style="stroke: black;stroke-width: 13;stroke-linecap:square;stroke-linejoin:round" fill="none" olab:comment=""/>
		<polyline points="2104,3881 2104,3915" style="stroke: black;stroke-width: 13;stroke-linecap:butt;stroke-linejoin:round" fill="none" olab:comment=""/>
		<polyline points="4253,3881 4253,3915" style="stroke: black;stroke-width: 13;stroke-linecap:butt;stroke-linejoin:round" fill="none" olab:comment=""/>
		<polyline points="1029,3881 1029,3950" style="stroke: black;stroke-width: 13;stroke-linecap:butt;stroke-linejoin:round" fill="none" olab:comment=""/>
		<polyline points="3178,3881 3178,3950" style="stroke: black;stroke-width: 13;stroke-linecap:butt;stroke-linejoin:round" fill="none" olab:comment=""/>
		<polyline points="5327,3881 5327,3950" style="stroke: black;stroke-width: 13;stroke-linecap:butt;stroke-linejoin:round" fill="none" olab:comment=""/>
		<polyline points="1029,3881 1029,345" style="stroke: black;stroke-width: 13;stroke-linecap:square;stroke-linejoin:round" fill="none" olab:comment=""/>
		<polyline points="1029,2982 995,2982" style="stroke: black;stroke-width: 13;stroke-linecap:butt;stroke-linejoin:round" fill="none" olab:comment=""/>
		<polyline points="1029,1865 995,1865" style="stroke: black;stroke-width: 13;stroke-linecap:butt;stroke-linejoin:round" fill="none" olab:comment=""/>
		<polyline points="1029,748 995,748" style="stroke: black;stroke-width: 13;stroke-linecap:butt;stroke-linejoin:round" fill="none" olab:comment=""/>
		<polyline points="1029,3540 960,3540" style="stroke: black;stroke-width: 13;stroke-linecap:butt;stroke-linejoin:round" fill="none" olab:comment=""/>
		<polyline points="1029,2423 960,2423" style="stroke: black;stroke-width: 13;stroke-linecap:butt;stroke-linejoin:round" fill="none" olab:comment=""/>
		<polyline points="1029,1306 960,1306" style="stroke: black;stroke-width: 13;stroke-linecap:butt;stroke-linejoin:round" fill="none" olab:comment=""/>
		<text x="942" dominant-baseline="auto" y="4096" fill="black" font-family="Arial,'MS PGothic',SimSun" font-size="125" font-weight="400" olab:comment="">
			<tspan x="942" style="font-kerning:none">0.0</tspan>
		</text>
		<text x="3091" dominant-baseline="auto" y="4096" fill="black" font-family="Arial,'MS PGothic',SimSun" font-size="125" font-weight="400" olab:comment="">
			<tspan x="3091" style="font-kerning:none">0.1</tspan>
		</text>
		<text x="5240" dominant-baseline="auto" y="4096" fill="black" font-family="Arial,'MS PGothic',SimSun" font-size="125" font-weight="400" olab:comment="">
			<tspan x="5240" style="font-kerning:none">0.2</tspan>
		</text>
		<text x="419" dominant-baseline="auto" y="3578" fill="black" font-family="Arial,'MS PGothic',SimSun" font-size="125" font-weight="400" olab:comment="">
			<tspan x="419" style="font-kerning:none">−463000</tspan>
		</text>
		<text x="419" dominant-baseline="auto" y="2461" fill="black" font-family="Arial,'MS PGothic',SimSun" font-size="125" font-weight="400" olab:comment="">
			<tspan x="419" style="font-kerning:none">−462000</tspan>
		</text>
		<text x="419" dominant-baseline="auto" y="1344" fill="black" font-family="Arial,'MS PGothic',SimSun" font-size="125" font-weight="400" olab:comment="">
			<tspan x="419" style="font-kerning:none">−461000</tspan>
		</text>
		<text x="0" dominant-baseline="auto" y="0" fill="black" font-family="Arial,'MS PGothic',SimSun" font-size="184" font-weight="400" transform="matrix(-1.83698e-16 -1 0.999999 -1.83698e-16 342 2822)" olab:comment="">
			<tspan x="0" style="white-space:pre;font-kerning:none" xml:space="preserve">Potential (kJ/mol)</tspan>
		</text>
		<text x="2834" dominant-baseline="auto" y="4363" fill="black" font-family="Arial,'MS PGothic',SimSun" font-size="184" font-weight="400" olab:comment="">
			<tspan x="2834" style="white-space:pre;font-kerning:none" xml:space="preserve">Time (ns)</tspan>
		</text>
	</svg>
</svg>

